<svg width="20" height="21" viewBox="0 0 20 21" fill="none" xmlns="http://www.w3.org/2000/svg">
<path d="M11.6667 2.1665H5.00004C4.55801 2.1665 4.13409 2.3421 3.82153 2.65466C3.50897 2.96722 3.33337 3.39114 3.33337 3.83317V17.1665C3.33337 17.6085 3.50897 18.0325 3.82153 18.345C4.13409 18.6576 4.55801 18.8332 5.00004 18.8332H15C15.4421 18.8332 15.866 18.6576 16.1786 18.345C16.4911 18.0325 16.6667 17.6085 16.6667 17.1665V7.1665L11.6667 2.1665Z" stroke="black" stroke-width="2" stroke-linecap="round" stroke-linejoin="round"/>
<path d="M11.6666 2.1665V7.1665H16.6666" stroke="black" stroke-width="2" stroke-linecap="round" stroke-linejoin="round"/>
<path d="M13.3333 11.3335H6.66663" stroke="black" stroke-width="2" stroke-linecap="round" stroke-linejoin="round"/>
<path d="M13.3333 14.6665H6.66663" stroke="black" stroke-width="2" stroke-linecap="round" stroke-linejoin="round"/>
<path d="M8.33329 8H7.49996H6.66663" stroke="black" stroke-width="2" stroke-linecap="round" stroke-linejoin="round"/>
</svg>
